#!OML:ASF I:\Actors\actors\Patient Classification 2\Patient 1\Session 1\actor1.ASF
:FULLY-SPECIFIED
:DEGREES
847
root -0.866502 18.5491 5.83419 -6.87838 0.904593 -2.68459
lowerback 3.36711 1.41754 3.57888
upperback 1.02073 2.03365 2.37535
thorax -0.800853 1.01439 0.351806
lowerneck -7.97984 -3.47855 1.25239
upperneck 25.8703 -4.89585 -0.947913
head 9.38324 -2.2557 -1.0407
rclavicle -1.10822e-014 -1.86858e-014
rhumerus -26.1543 24.5988 -89.1875
rradius 98.8528
rwrist -50.0218
rhand -4.92896 -62.3224
rfingers 7.12502
rthumb 20.8617 91.2207
lclavicle -1.10822e-014 -1.86858e-014
lhumerus -44.241 0.00775069 90.8674
lradius 51.8628
lwrist 9.72478
lhand -8.5153 -21.4547
lfingers 7.12502
lthumb 17.413 7.78532
rfemur 17.0348 1.99689 18.2809
rtibia -2.54444e-014
rfoot -20.2512 -11.9878
rtoes -6.58291
lfemur 1.7952 -7.60653 -12.547
ltibia 23.8098
lfoot -21.4904 9.90441
ltoes -57.7429
848
root -0.849721 18.5538 5.81309 -6.75005 0.158429 -2.68215
lowerback 3.54217 1.5764 3.96731
upperback 1.03465 2.26715 2.36032
thorax -0.863956 1.12978 0.106362
lowerneck -8.06393 -3.43183 1.27824
upperneck 25.8593 -4.81571 -1.03079
head 9.39295 -2.22486 -1.0672
rclavicle -1.38901e-014 2.42517e-014
rhumerus -23.911 24.9608 -88.3241
rradius 97.9513
rwrist -50.5711
rhand -3.49855 -63.3623
rfingers 7.12502
rthumb 22.2354 92.1033
lclavicle -1.38901e-014 2.42517e-014
lhumerus -44.2811 -0.1549 90.9436
lradius 51.9432
lwrist 9.77927
lhand -8.66642 -21.5039
lfingers 7.12502
lthumb 17.2675 7.74895
rfemur 16.6493 2.74762 18.304
rtibia 7.95139e-014
rfoot -20.0329 -12.1804
rtoes -6.83124
lfemur 1.73517 -7.37418 -12.6281
ltibia 23.8237
lfoot -21.6422 10.3395
ltoes -57.6649
849
root -0.856885 18.5511 5.80602 -6.85302 0.0774028 -2.75897
lowerback 3.60862 1.5037 3.96118
upperback 1.16211 2.16977 2.47447
thorax -0.77737 1.08353 0.230955
lowerneck -8.05435 -3.33142 1.37339
upperneck 25.7803 -4.63466 -1.25045
head 9.35627 -2.15623 -1.13848
rclavicle 8.74653e-015 2.74323e-014
rhumerus -20.9546 25.3141 -87.2206
rradius 96.7748
rwrist -51.1952
rhand -3.32253 -64.1049
rfingers 7.12502
rthumb 22.4044 92.8256
lclavicle 8.74653e-015 2.74323e-014
lhumerus -44.3133 -0.223247 91.0078
lradius 51.9506
lwrist 9.65565
lhand -8.66226 -21.5282
lfingers 7.12502
lthumb 17.2715 7.72428
rfemur 16.7489 2.80972 18.4449
rtibia 2.38542e-014
rfoot -20.034 -12.1725
rtoes -6.52351
lfemur 1.83118 -7.15593 -12.4555
ltibia 23.8412
lfoot -21.5789 10.1566
ltoes -57.6662
850
root -0.862046 18.5506 5.79562 -6.89488 -0.154839 -2.76228
lowerback 3.68483 1.49998 3.9484
upperback 1.25467 2.16555 2.55133
thorax -0.728402 1.08283 0.316481
lowerneck -7.98619 -3.22712 1.48235
upperneck 25.7316 -4.46813 -1.3983
head 9.32148 -2.08487 -1.18823
rclavicle 8.74653e-015 -3.18055e-015
rhumerus -17.5681 25.4468 -85.9912
rradius 95.3348
rwrist -52.1904
rhand -4.55894 -64.0887
rfingers 7.12502
rthumb 21.2171 92.9475
lclavicle 8.74653e-015 -3.18055e-015
lhumerus -44.2779 -0.349862 91.0477
lradius 51.9763
lwrist 9.74334
lhand -8.0909 -21.2602
lfingers 7.12502
lthumb 17.8214 7.94318
rfemur 16.7488 3.03111 18.5182
rtibia 0
rfoot -20.0242 -12.2041
rtoes -6.41094
lfemur 1.90804 -6.93576 -12.3827
ltibia 23.8327
lfoot -21.5771 10.1199
ltoes -57.5672
851
root -0.84337 18.5582 5.77132 -6.66224 -0.693446 -2.67976
lowerback 3.79164 1.60975 4.33559
upperback 1.21951 2.3324 2.46908
thorax -0.801193 1.16469 0.00623007
lowerneck -8.0226 -3.16905 1.4918
upperneck 25.8407 -4.41512 -1.30128
head 9.37042 -2.04742 -1.15417
rclavicle -1.58779e-014 -2.62396e-014
rhumerus -14.0466 25.2933 -84.7822
rradius 93.5418
rwrist -53.6348
rhand -5.24652 -64.1393
rfingers 7.12502
rthumb 20.5565 93.0709
lclavicle -1.58779e-014 -2.62396e-014
lhumerus -44.1885 -0.683959 91.0894
lradius 51.9101
lwrist 9.8107
lhand -7.78467 -21.1188
lfingers 7.12502
lthumb 18.116 8.05754
rfemur 16.2884 3.58387 18.4244
rtibia -4.29375e-014
rfoot -19.8328 -12.3815
rtoes -6.60423
lfemur 1.69893 -6.81286 -12.5434
ltibia 23.8056
lfoot -21.6239 10.5801
ltoes -57.5087
852
root -0.858165 18.5579 5.76574 -6.68991 -0.66779 -2.66692
lowerback 3.78382 1.56356 4.25591
upperback 1.31917 2.26326 2.49889
thorax -0.700823 1.13275 0.086036
lowerneck -8.06141 -3.15984 1.46502
upperneck 25.9031 -4.43143 -1.17558
head 9.40402 -2.04323 -1.11025
rclavicle -8.99501e-015 -4.05521e-014
rhumerus -10.3352 24.8005 -83.6603
rradius 91.4959
rwrist -55.388
rhand -5.41614 -64.5176
rfingers 7.12502
rthumb 20.3935 93.4668
lclavicle -8.99501e-015 -4.05521e-014
lhumerus -44.044 -1.0767 91.1507
lradius 51.6884
lwrist 9.57971
lhand -7.96444 -21.3155
lfingers 7.12502
lthumb 17.943 7.87677
rfemur 16.3587 3.54289 18.4853
rtibia -7.79236e-014
rfoot -19.8849 -12.332
rtoes -6.33334
lfemur 1.72456 -6.55764 -12.4225
ltibia 23.7705
lfoot -21.4213 10.3861
ltoes -57.6976
